<svg xmlns="http://www.w3.org/2000/svg" viewBox="0 0 64 64">
  <path d="M62 32C62 15.43 48.57 2 32 2S2 15.43 2 32c0 2.49.309 4.907.88 7.221-2.49 4.892.696 10.032 5.058 10.699C13.407 57.252 22.149 62 32 62c9.853 0 18.593-4.748 24.062-12.08 4.361-.668 7.545-5.807 5.057-10.697.572-2.315.881-4.732.881-7.223M32 4.5c15.164 0 27.5 12.336 27.5 27.5 0 1.552-.135 3.071-.383 4.553-5.41-5.293-15.186-5.543-15.186-5.543s.029 1.197.264 2.996H19.803c.236-1.799.264-2.996.264-2.996s-9.771.25-15.183 5.543C4.636 35.07 4.5 33.551 4.5 32 4.5 16.836 16.837 4.5 32 4.5M18.499 40c.443-1.395.762-2.765.99-4H44.51c.229 1.235.549 2.605.99 4H18.499m21.214 10.664c-2.229.957-4.799 1.518-7.712 1.518-2.914 0-5.484-.561-7.713-1.518 2.152-1.031 4.711-1.662 7.713-1.662 3.001 0 5.562.631 7.712 1.662M32 59.5c-8.443 0-16.007-3.828-21.056-9.836 1.195-.396 2.401-1.152 3.543-2.354.326-.342.632-.704.92-1.08C18.222 50.436 23.592 54 32 54c8.406 0 13.777-3.563 16.591-7.769.289.376.594.737.918 1.079 1.145 1.201 2.352 1.959 3.547 2.354C48.008 55.672 40.443 59.5 32 59.5"/>
  <path d="M14.858 29.607c1.802-1.901 3.957-2.658 6.207-2.658s4.404.757 6.207 2.658c.479.505 1.438-.424 1.254-.938C26.667 23.558 23.866 21 21.065 21s-5.602 2.558-7.46 7.669c-.184.515.774 1.443 1.253.938m21.869 0c1.803-1.901 3.957-2.658 6.207-2.658s4.404.757 6.207 2.658c.479.505 1.438-.424 1.254-.938C48.535 23.558 45.734 21 42.934 21s-5.602 2.558-7.461 7.669c-.184.515.775 1.443 1.254.938"/>
</svg>